<?xml version="1.0" encoding="UTF-8" standalone="no"?>
<!-- Created with Inkscape (http://www.inkscape.org/) -->

<svg
   width="128"
   height="128"
   viewBox="0 0 1024 1024"
   version="1.1"
   id="svg5"
   inkscape:version="1.1.1 (c3084ef, 2021-09-22)"
   sodipodi:docname="scheefmakkers_logo.svg"
   inkscape:export-filename="/Users/quinten/Documents/projects/quintenclub/scheefmakkers/apple-touch-icon.png"
   inkscape:export-xdpi="768"
   inkscape:export-ydpi="768"
   shape-rendering="crispEdges"
   xmlns:inkscape="http://www.inkscape.org/namespaces/inkscape"
   xmlns:sodipodi="http://sodipodi.sourceforge.net/DTD/sodipodi-0.dtd"
   xmlns="http://www.w3.org/2000/svg"
   xmlns:svg="http://www.w3.org/2000/svg"
   xmlns:rdf="http://www.w3.org/1999/02/22-rdf-syntax-ns#"
   xmlns:cc="http://creativecommons.org/ns#"
   xmlns:dc="http://purl.org/dc/elements/1.1/">
  <title
     id="title848">Scheefmakkers Logo</title>
  <sodipodi:namedview
     id="namedview7"
     pagecolor="#ffffff"
     bordercolor="#666666"
     borderopacity="1.0"
     inkscape:pageshadow="2"
     inkscape:pageopacity="0.0"
     inkscape:pagecheckerboard="true"
     inkscape:document-units="px"
     showgrid="true"
     units="px"
     width="1024px"
     inkscape:showpageshadow="false"
     borderlayer="true"
     lock-margins="true"
     inkscape:zoom="3.4973612"
     inkscape:cx="160.83555"
     inkscape:cy="64.477184"
     inkscape:window-width="1512"
     inkscape:window-height="945"
     inkscape:window-x="0"
     inkscape:window-y="37"
     inkscape:window-maximized="0"
     inkscape:current-layer="layer1"
     showguides="true"
     objecttolerance="10000"
     guidetolerance="10000"
     inkscape:snap-global="true"
     inkscape:snap-bbox="true"
     inkscape:snap-nodes="false"
     inkscape:snap-others="false"
     inkscape:snap-grids="true"
     inkscape:snap-to-guides="false"
     gridtolerance="10000"
     inkscape:snap-page="false"
     inkscape:snap-text-baseline="false"
     inkscape:snap-center="false"
     inkscape:snap-object-midpoints="false"
     inkscape:object-paths="false"
     inkscape:snap-intersection-paths="false"
     inkscape:snap-smooth-nodes="false"
     inkscape:snap-midpoints="false"
     inkscape:bbox-paths="true"
     inkscape:bbox-nodes="true"
     inkscape:snap-bbox-edge-midpoints="false"
     inkscape:snap-bbox-midpoints="false"
     inkscape:object-nodes="false">
    <inkscape:grid
       type="xygrid"
       id="grid844"
       dotted="false"
       empspacing="1"
       spacingx="64"
       spacingy="64"
       snapvisiblegridlinesonly="false" />
  </sodipodi:namedview>
  <defs
     id="defs2" />
  <g
     inkscape:label="Layer 1"
     inkscape:groupmode="layer"
     id="layer1">
    <rect
       style="fill:#ffffff;stroke-width:39.4344;-inkscape-stroke:none;stop-color:#000000"
       id="rect273"
       width="1024"
       height="1024"
       x="-1.1368684e-13"
       y="0" />
    <path
       id="path5716"
       style="fill:#000000;stroke-width:2.83251;stop-color:#000000"
       d="M 512 128 A 128 128 0 0 0 384 256 A 128 128 0 0 0 512 384 L 512 384.08398 A 64.427423 63.569692 45.000728 0 1 575.99414 448 A 64.427423 63.569692 45.000728 0 1 512.85742 512 A 64.427423 63.569692 45.000728 0 1 512 511.91602 L 512 512 A 31.999996 32 0 0 0 480 544 A 31.999996 32 0 0 0 512 576 A 128 128 0 0 0 640 448 A 128 128 0 0 0 512 320 A 63.999992 63.999992 0 0 1 448 256 A 63.999992 63.999992 0 0 1 512 192 L 576 160 L 512 128 z M 512 528 A 16 16.000002 0 0 1 528 544 A 16 16.000002 0 0 1 512 560 A 16 16.000002 0 0 1 496 544 A 16 16.000002 0 0 1 512 528 z " />
    <path
       id="rect1803-3"
       style="fill:#000000;stroke-width:1.32558;stop-color:#000000"
       d="m 186.42203,895.75646 a 64,64 0 0 0 69.33443,-58.17849 l 39.04577,-446.29522 -52.60052,-133.09089 -74.9124,121.93495 -39.04577,446.29523 a 64,64 0 0 0 58.17849,69.33442 z m 2.78899,-31.87823 a 32,32 0 0 1 -29.08925,-34.66721 32,32 0 0 1 34.66721,-29.08925 32,32 0 0 1 29.08925,34.66722 32,32 0 0 1 -34.66721,29.08924 z" />
    <path
       id="rect2414"
       style="fill:#000000;stroke-width:0.584578;stop-color:#000000"
       d="M 283.25195 320 L 256 331.3125 L 463.13867 726.74805 A 64 64 0 0 0 448 768 A 64 64 0 0 0 496 829.84961 L 496 896 L 528 896 L 528 829.84961 A 64 64 0 0 0 576 768 A 64 64 0 0 0 560.88086 726.71094 L 768 331.3125 L 740.74805 320 L 536.94336 709.07031 A 64 64 0 0 0 512 704 A 64 64 0 0 0 487.10156 709.1543 L 283.25195 320 z " />
    <path
       id="path1120"
       style="fill:#000000;stroke-width:1.32558;stop-color:#000000"
       d="m 843.11349,265.72304 a 64,64 0 0 1 51.91421,74.14118 L 817.23332,781.05809 731.97866,896 691.17793,758.83112 768.97231,317.63725 a 64,64 0 0 1 74.14118,-51.91421 z m -5.55675,31.51385 a 32,32 0 0 0 -37.07058,25.9571 32,32 0 0 0 25.95711,37.07059 32,32 0 0 0 37.07059,-25.95711 32,32 0 0 0 -25.95712,-37.07058 z" />
  </g>
  <metadata
     id="metadata846">
    <rdf:RDF>
      <cc:Work
         rdf:about="">
        <dc:title>Scheefmakkers Logo</dc:title>
        <dc:creator>
          <cc:Agent>
            <dc:title>Quinten</dc:title>
          </cc:Agent>
        </dc:creator>
        <dc:publisher>
          <cc:Agent>
            <dc:title>Quinten Club</dc:title>
          </cc:Agent>
        </dc:publisher>
        <dc:contributor>
          <cc:Agent>
            <dc:title>Quinten, Quinten and Quinten.</dc:title>
          </cc:Agent>
        </dc:contributor>
      </cc:Work>
    </rdf:RDF>
  </metadata>
</svg>
